<svg width="26" height="26" viewBox="0 0 26 26" fill="none" xmlns="http://www.w3.org/2000/svg">
<path fill-rule="evenodd" clip-rule="evenodd" d="M25.5 13C25.5 19.2455 20.9197 24.4212 14.9349 25.3512C14.5697 25.4079 14.25 25.1177 14.25 24.7482V15.5H16.75C17.4404 15.5 18 14.9404 18 14.25C18 13.5596 17.4404 13 16.75 13H14.25V10.5C14.25 9.80964 14.8096 9.25 15.5 9.25H16.75C17.4404 9.25 18 8.69036 18 8C18 7.30964 17.4404 6.75 16.75 6.75H15.5C13.4289 6.75 11.75 8.42893 11.75 10.5V13H10.5C9.80964 13 9.25 13.5596 9.25 14.25C9.25 14.9404 9.80964 15.5 10.5 15.5H11.75V24.7482C11.75 25.1177 11.4303 25.4079 11.0651 25.3512C5.08033 24.4212 0.5 19.2455 0.5 13C0.5 6.09644 6.09644 0.5 13 0.5C19.9036 0.5 25.5 6.09644 25.5 13Z" fill="#004AAD"/>
</svg>
