<svg width="25" height="23" viewBox="0 0 25 23" fill="none" xmlns="http://www.w3.org/2000/svg">
<path d="M2.93092 0.695312V-0.000188291H2.23541V0.695312H2.93092ZM22.8959 0.695312H23.5914V-0.000188291H22.8959V0.695312ZM6.18255 10.186C5.91094 10.4576 5.91094 10.898 6.18255 11.1696C6.45416 11.4412 6.89453 11.4412 7.16614 11.1696L6.18255 10.186ZM10.4178 6.93436L10.9096 6.44257C10.7791 6.31214 10.6022 6.23886 10.4178 6.23886C10.2333 6.23886 10.0564 6.31214 9.92598 6.44257L10.4178 6.93436ZM14.1612 10.6778L13.6694 11.1696C13.7998 11.3 13.9767 11.3733 14.1612 11.3733C14.3457 11.3733 14.5226 11.3 14.653 11.1696L14.1612 10.6778ZM19.6442 6.17835C19.9158 5.90674 19.9158 5.46637 19.6442 5.19476C19.3726 4.92315 18.9323 4.92315 18.6607 5.19476L19.6442 6.17835ZM7.43036 21.4163C7.15875 21.6879 7.15875 22.1283 7.43036 22.3999C7.70197 22.6715 8.14234 22.6715 8.41395 22.3999L7.43036 21.4163ZM12.9134 16.9168L13.4052 16.4251C13.2748 16.2946 13.0979 16.2213 12.9134 16.2213C12.7289 16.2213 12.552 16.2946 12.4216 16.4251L12.9134 16.9168ZM17.4128 22.3999C17.6845 22.6715 18.1248 22.6715 18.3964 22.3999C18.668 22.1283 18.668 21.6879 18.3964 21.4163L17.4128 22.3999ZM1.68311 -0.000188291C1.29899 -0.000188291 0.987605 0.311198 0.987605 0.695312C0.987605 1.07943 1.29899 1.39081 1.68311 1.39081V-0.000188291ZM24.1437 1.39081C24.5278 1.39081 24.8392 1.07943 24.8392 0.695312C24.8392 0.311198 24.5278 -0.000188291 24.1437 -0.000188291V1.39081ZM2.93092 1.39081H22.8959V-0.000188291H2.93092V1.39081ZM22.2004 0.695312V15.669H23.5914V0.695312H22.2004ZM21.6481 16.2213H4.17873V17.6123H21.6481V16.2213ZM3.62642 15.669V0.695312H2.23541V15.669H3.62642ZM4.17873 16.2213C3.87369 16.2213 3.62642 15.9741 3.62642 15.669H2.23541C2.23541 16.7423 3.10546 17.6123 4.17873 17.6123V16.2213ZM22.2004 15.669C22.2004 15.9741 21.9531 16.2213 21.6481 16.2213V17.6123C22.7213 17.6123 23.5914 16.7423 23.5914 15.669H22.2004ZM7.16614 11.1696L10.9096 7.42616L9.92598 6.44257L6.18255 10.186L7.16614 11.1696ZM9.92598 7.42616L13.6694 11.1696L14.653 10.186L10.9096 6.44257L9.92598 7.42616ZM14.653 11.1696L19.6442 6.17835L18.6607 5.19476L13.6694 10.186L14.653 11.1696ZM8.41395 22.3999L13.4052 17.4086L12.4216 16.4251L7.43036 21.4163L8.41395 22.3999ZM12.4216 17.4086L17.4128 22.3999L18.3964 21.4163L13.4052 16.4251L12.4216 17.4086ZM1.68311 1.39081H24.1437V-0.000188291H1.68311V1.39081Z" fill="white"/>
</svg>
