<svg width="24" height="24" viewBox="0 0 24 24" fill="none" xmlns="http://www.w3.org/2000/svg">
<path fill-rule="evenodd" clip-rule="evenodd" d="M0.75 6.75C0.75 4.6498 0.75 3.5997 1.15873 2.79754C1.51825 2.09193 2.09193 1.51825 2.79754 1.15873C3.5997 0.75 4.6498 0.75 6.75 0.75H17.25C19.3502 0.75 20.4003 0.75 21.2025 1.15873C21.9081 1.51825 22.4817 2.09193 22.8413 2.79754C23.25 3.5997 23.25 4.6498 23.25 6.75V17.25C23.25 19.3502 23.25 20.4003 22.8413 21.2025C22.4817 21.9081 21.9081 22.4817 21.2025 22.8413C20.4003 23.25 19.3502 23.25 17.25 23.25H6.75C4.6498 23.25 3.5997 23.25 2.79754 22.8413C2.09193 22.4817 1.51825 21.9081 1.15873 21.2025C0.75 20.4003 0.75 19.3502 0.75 17.25V6.75ZM5.75 12C5.75 11.3096 6.30964 10.75 7 10.75C7.69036 10.75 8.25 11.3096 8.25 12V17C8.25 17.6904 7.69036 18.25 7 18.25C6.30964 18.25 5.75 17.6904 5.75 17V12ZM7 8.25C7.69036 8.25 8.25 7.69036 8.25 7C8.25 6.30964 7.69036 5.75 7 5.75C6.30964 5.75 5.75 6.30964 5.75 7C5.75 7.69036 6.30964 8.25 7 8.25ZM14.5 13.25C13.8096 13.25 13.25 13.8096 13.25 14.5V17C13.25 17.6904 12.6904 18.25 12 18.25C11.3096 18.25 10.75 17.6904 10.75 17V14.5V12C10.75 11.3096 11.3096 10.75 12 10.75C12.3448 10.75 12.6571 10.8896 12.8832 11.1155C13.3728 10.8812 13.9211 10.75 14.5 10.75C16.5711 10.75 18.25 12.4289 18.25 14.5V17C18.25 17.6904 17.6904 18.25 17 18.25C16.3096 18.25 15.75 17.6904 15.75 17V14.5C15.75 13.8096 15.1904 13.25 14.5 13.25Z" fill="#004AAD"/>
</svg>
