<svg width="18" height="22" viewBox="0 0 18 22" fill="none" xmlns="http://www.w3.org/2000/svg">
<path d="M14.6569 15.5006C13.7202 16.4372 11.7616 18.3959 10.4138 19.7437C9.63275 20.5247 8.36768 20.5251 7.58663 19.7441C6.26234 18.4198 4.34159 16.499 3.34315 15.5006C0.218951 12.3764 0.218951 7.31109 3.34315 4.1869C6.46734 1.0627 11.5327 1.0627 14.6569 4.1869C17.781 7.31109 17.781 12.3764 14.6569 15.5006Z" stroke="#004AAD" stroke-width="2" stroke-linecap="round" stroke-linejoin="round"/>
<path d="M12 9.84375C12 11.5006 10.6569 12.8438 9 12.8438C7.34315 12.8438 6 11.5006 6 9.84375C6 8.1869 7.34315 6.84375 9 6.84375C10.6569 6.84375 12 8.1869 12 9.84375Z" stroke="#004AAD" stroke-width="2" stroke-linecap="round" stroke-linejoin="round"/>
</svg>
