<svg width="18" height="17" viewBox="0 0 18 17" fill="none" xmlns="http://www.w3.org/2000/svg">
<path d="M1.5 2.66667C1.5 1.74619 2.24619 1 3.16667 1H5.89937C6.25806 1 6.57651 1.22953 6.68994 1.56981L7.93811 5.31434C8.06926 5.70777 7.89115 6.13776 7.52022 6.32322L5.63917 7.26375C6.55771 9.30101 8.19898 10.9423 10.2363 11.8608L11.1768 9.97978C11.3622 9.60885 11.7922 9.43074 12.1857 9.56189L15.9302 10.8101C16.2705 10.9235 16.5 11.2419 16.5 11.6006V14.3333C16.5 15.2538 15.7538 16 14.8333 16H14C7.09644 16 1.5 10.4036 1.5 3.5V2.66667Z" stroke="#004AAD" stroke-width="2" stroke-linecap="round" stroke-linejoin="round"/>
</svg>
