<svg width="25" height="25" viewBox="0 0 25 25" fill="none" xmlns="http://www.w3.org/2000/svg">
<path d="M15.0399 8.99041C15.2916 9.28053 15.7309 9.31165 16.021 9.05991C16.3111 8.80817 16.3422 8.3689 16.0905 8.07878L15.0399 8.99041ZM9.56393 15.6134C9.31219 15.3232 8.87292 15.2921 8.5828 15.5439C8.29268 15.7956 8.26156 16.2349 8.5133 16.525L9.56393 15.6134ZM12.9974 6.02306C12.9974 5.63895 12.686 5.32756 12.3019 5.32756C11.9178 5.32756 11.6064 5.63895 11.6064 6.02306H12.9974ZM11.6064 18.5807C11.6064 18.9648 11.9178 19.2762 12.3019 19.2762C12.686 19.2762 12.9974 18.9648 12.9974 18.5807L11.6064 18.5807ZM22.9083 12.3019C22.9083 18.1596 18.1596 22.9083 12.3019 22.9083V24.2993C18.9279 24.2993 24.2993 18.9279 24.2993 12.3019H22.9083ZM12.3019 22.9083C6.44414 22.9083 1.6955 18.1596 1.6955 12.3019H0.304499C0.304499 18.9279 5.67591 24.2993 12.3019 24.2993V22.9083ZM1.6955 12.3019C1.6955 6.44414 6.44414 1.6955 12.3019 1.6955V0.304499C5.67591 0.304499 0.304499 5.67591 0.304499 12.3019H1.6955ZM12.3019 1.6955C18.1596 1.6955 22.9083 6.44414 22.9083 12.3019H24.2993C24.2993 5.67591 18.9279 0.304499 12.3019 0.304499V1.6955ZM12.3019 11.6064C11.3797 11.6064 10.5763 11.3559 10.0238 10.9876C9.4664 10.616 9.23009 10.179 9.23009 9.79036H7.83909C7.83909 10.7888 8.44612 11.6076 9.25221 12.145C10.0632 12.6856 11.1434 12.9974 12.3019 12.9974V11.6064ZM9.23009 9.79036C9.23009 9.40171 9.4664 8.96473 10.0238 8.59313C10.5763 8.22477 11.3797 7.97433 12.3019 7.97433V6.58333C11.1434 6.58333 10.0632 6.89511 9.25221 7.43575C8.44612 7.97314 7.83909 8.79192 7.83909 9.79036H9.23009ZM12.3019 7.97433C13.5526 7.97433 14.5543 8.43079 15.0399 8.99041L16.0905 8.07878C15.2733 7.137 13.84 6.58333 12.3019 6.58333V7.97433ZM12.3019 12.9974C13.224 12.9974 14.0274 13.2478 14.58 13.6162C15.1374 13.9878 15.3737 14.4248 15.3737 14.8134H16.7647C16.7647 13.815 16.1577 12.9962 15.3516 12.4588C14.5406 11.9182 13.4604 11.6064 12.3019 11.6064V12.9974ZM11.6064 6.02306V7.27883H12.9974V6.02306H11.6064ZM11.6064 17.3249L11.6064 18.5807L12.9974 18.5807L12.9974 17.325L11.6064 17.3249ZM12.3019 16.6294C11.0512 16.6294 10.0495 16.173 9.56393 15.6134L8.5133 16.525C9.33048 17.4668 10.7638 18.0204 12.3019 18.0205L12.3019 16.6294ZM15.3737 14.8134C15.3737 15.2021 15.1374 15.639 14.58 16.0106C14.0275 16.379 13.2241 16.6294 12.3019 16.6294V18.0205C13.4604 18.0205 14.5406 17.7087 15.3516 17.168C16.1577 16.6306 16.7647 15.8119 16.7647 14.8134H15.3737ZM11.6064 7.27883L11.6064 17.325L12.9974 17.3249L12.9974 7.27882L11.6064 7.27883Z" fill="white"/>
</svg>
