<svg width="26" height="20" viewBox="0 0 26 20" fill="none" xmlns="http://www.w3.org/2000/svg">
<path fill-rule="evenodd" clip-rule="evenodd" d="M22.9999 5.00219C22.9999 5.00146 22.9999 5.00073 22.9999 5C22.9999 4.99993 22.9999 4.99985 22.9999 4.99978L25.3437 2.4709C25.7257 2.05868 25.3821 1.39454 24.825 1.46823L21.8885 1.8566C20.9718 0.724075 19.5704 0 17.9999 0C15.2385 0 12.9999 2.23858 12.9999 5C12.9999 5.6593 13.1275 6.2888 13.3594 6.86515C9.61391 6.77756 5.60356 6.03642 3.576 2.01925C3.32511 1.52216 2.60587 1.49337 2.44615 2.02679C0.978982 6.9268 3.561 13.2934 9.24966 15C7.83056 16.3875 4.18259 16.7643 1.19732 16.4909C0.616405 16.4377 0.251711 17.0995 0.700941 17.4716C3.2041 19.5452 6.67582 20 9.87476 20C17.9989 20 23.6236 13.1262 22.9999 5.00219Z" fill="#004AAD"/>
</svg>
