<svg width="26" height="20" viewBox="0 0 26 20" fill="none" xmlns="http://www.w3.org/2000/svg">
<path fill-rule="evenodd" clip-rule="evenodd" d="M4.98714 0.261764C2.66061 0.419435 0.865187 2.27117 0.713881 4.59812C0.600901 6.33564 0.5 8.34944 0.5 10C0.5 11.6506 0.600901 13.6644 0.713881 15.4019C0.865187 17.7288 2.66061 19.5806 4.98714 19.7382C7.01791 19.8759 9.75034 20 13 20C16.2497 20 18.9821 19.8759 21.0129 19.7382C23.3394 19.5806 25.1348 17.7288 25.2861 15.4019C25.3991 13.6644 25.5 11.6506 25.5 10C25.5 8.34944 25.3991 6.33564 25.2861 4.59812C25.1348 2.27117 23.3394 0.419435 21.0129 0.261764C18.9821 0.124138 16.2497 0 13 0C9.75034 0 7.01791 0.124138 4.98714 0.261764ZM12.4401 6.45974C11.6091 5.90956 10.5 6.5054 10.5 7.50199V12.4983C10.5 13.4949 11.6091 14.0907 12.44 13.5406L16.1818 11.0634C16.9433 10.5593 16.9433 9.44142 16.1818 8.93721L12.4401 6.45974Z" fill="#004AAD"/>
</svg>
