<svg width="22" height="26" viewBox="0 0 22 26" fill="none" xmlns="http://www.w3.org/2000/svg">
<g id="Icon">
<path d="M17.9706 18.4706C16.7242 19.717 14.0212 22.4199 12.3539 24.0873C11.5728 24.8683 10.3089 24.8678 9.52789 24.0868C7.88869 22.4476 5.24169 19.8006 3.91169 18.4706C0.0294372 14.5883 0.0294372 8.29394 3.91169 4.41169C7.79394 0.529437 14.0883 0.529437 17.9706 4.41169C21.8528 8.29394 21.8528 14.5883 17.9706 18.4706Z" fill="#004AAD"/>
<path d="M14.669 11.4411C14.669 13.5 13 15.169 10.9411 15.169C8.88225 15.169 7.2132 13.5 7.2132 11.4411C7.2132 9.38225 8.88225 7.7132 10.9411 7.7132C13 7.7132 14.669 9.38225 14.669 11.4411Z" fill="#004AAD"/>
<path d="M17.9706 18.4706C16.7242 19.717 14.0212 22.4199 12.3539 24.0873C11.5728 24.8683 10.3089 24.8678 9.52789 24.0868C7.88869 22.4476 5.24169 19.8006 3.91169 18.4706C0.0294372 14.5883 0.0294372 8.29394 3.91169 4.41169C7.79394 0.529437 14.0883 0.529437 17.9706 4.41169C21.8528 8.29394 21.8528 14.5883 17.9706 18.4706Z" stroke="white" stroke-width="2" stroke-linecap="round" stroke-linejoin="round"/>
<path d="M14.669 11.4411C14.669 13.5 13 15.169 10.9411 15.169C8.88225 15.169 7.2132 13.5 7.2132 11.4411C7.2132 9.38225 8.88225 7.7132 10.9411 7.7132C13 7.7132 14.669 9.38225 14.669 11.4411Z" stroke="white" stroke-width="2" stroke-linecap="round" stroke-linejoin="round"/>
</g>
</svg>
