<svg width="29" height="29" viewBox="0 0 29 29" fill="none" xmlns="http://www.w3.org/2000/svg">
<g id="Icon">
<path d="M1.93103 4.72474C1.93103 3.18216 3.18155 1.93164 4.72413 1.93164H9.30376C9.90488 1.93164 10.4386 2.31629 10.6286 2.88656L12.7204 9.16188C12.9402 9.82121 12.6417 10.5418 12.0201 10.8526L8.86771 12.4288C10.4071 15.843 13.1576 18.5936 16.5718 20.1329L18.148 16.9805C18.4588 16.3589 19.1794 16.0604 19.8387 16.2802L26.114 18.372C26.6843 18.562 27.069 19.0957 27.069 19.6968V24.2765C27.069 25.8191 25.8184 27.0696 24.2759 27.0696H22.8793C11.3099 27.0696 1.93103 17.6907 1.93103 6.1213V4.72474Z" fill="#004AAD"/>
<path d="M20.0862 1.93164H27.069M27.069 1.93164V8.9144M27.069 1.93164L18.6897 10.311M4.72413 1.93164C3.18155 1.93164 1.93103 3.18216 1.93103 4.72474V6.1213C1.93103 17.6907 11.3099 27.0696 22.8793 27.0696H24.2759C25.8184 27.0696 27.069 25.8191 27.069 24.2765V19.6968C27.069 19.0957 26.6843 18.562 26.114 18.372L19.8387 16.2802C19.1794 16.0604 18.4588 16.3589 18.148 16.9805L16.5718 20.1329C13.1576 18.5936 10.4071 15.843 8.86771 12.4288L12.0201 10.8526C12.6417 10.5418 12.9402 9.82121 12.7204 9.16188L10.6286 2.88656C10.4386 2.31629 9.90488 1.93164 9.30376 1.93164H4.72413Z" stroke="#004AAD" stroke-width="2.7931" stroke-linecap="round" stroke-linejoin="round"/>
</g>
</svg>
