<svg width="20" height="17" viewBox="0 0 20 17" fill="none" xmlns="http://www.w3.org/2000/svg">
<g id="Icon">
<path d="M1 3.5C1 2.39543 1.89543 1.5 3 1.5H17C18.1046 1.5 19 2.39543 19 3.5V13.5C19 14.6046 18.1046 15.5 17 15.5H3C1.89543 15.5 1 14.6046 1 13.5V3.5Z" fill="#004AAD"/>
<path d="M1 4.5L8.8906 9.7604C9.5624 10.2083 10.4376 10.2083 11.1094 9.7604L19 4.5M3 15.5H17C18.1046 15.5 19 14.6046 19 13.5V3.5C19 2.39543 18.1046 1.5 17 1.5H3C1.89543 1.5 1 2.39543 1 3.5V13.5C1 14.6046 1.89543 15.5 3 15.5Z" stroke="white" stroke-width="2" stroke-linecap="round" stroke-linejoin="round"/>
</g>
</svg>
