<svg width="30" height="26" viewBox="0 0 30 26" fill="none" xmlns="http://www.w3.org/2000/svg">
<g id="Icon">
<path d="M20.125 4.875C20.125 7.56739 17.9424 9.75 15.25 9.75C12.5576 9.75 10.375 7.56739 10.375 4.875C10.375 2.18261 12.5576 0 15.25 0C17.9424 0 20.125 2.18261 20.125 4.875Z" fill="#004AAD"/>
<path d="M29.875 9.75C29.875 11.5449 28.4199 13 26.625 13C24.8301 13 23.375 11.5449 23.375 9.75C23.375 7.95507 24.8301 6.5 26.625 6.5C28.4199 6.5 29.875 7.95507 29.875 9.75Z" fill="#004AAD"/>
<path d="M7.125 9.75C7.125 11.5449 5.66993 13 3.875 13C2.08007 13 0.625 11.5449 0.625 9.75C0.625 7.95507 2.08007 6.5 3.875 6.5C5.66993 6.5 7.125 7.95507 7.125 9.75Z" fill="#004AAD"/>
<path d="M15.25 14.625C11.8291 14.625 8.90194 16.7392 7.7039 19.7322C7.33044 20.6652 7.125 21.6836 7.125 22.75V26H23.375V22.75C23.375 21.6836 23.1696 20.6652 22.7961 19.7322C21.5981 16.7392 18.6709 14.625 15.25 14.625Z" fill="#004AAD"/>
</g>
</svg>
