<svg width="35" height="24" viewBox="0 0 35 24" fill="none" xmlns="http://www.w3.org/2000/svg">
<g id="&#240;&#159;&#166;&#134; icon &#34;fighter-jet&#34;">
<path id="Vector" d="M29.1429 10.2857L22.2857 9.42857L19.7143 8.57143H18.4286L12.1692 0.642857H14.2857C14.9107 0.642857 15.4286 0.502232 15.4286 0.321429C15.4286 0.140625 14.9107 0 14.2857 0H8.14286V0.642857H9V9.42857H6.42857L2.85712 5.14286H1.00002L0.428571 5.7143V9.42857H0.857143V10.2857H3.42857V10.4285L0 10.8571V13.1428L3.42857 13.5714V13.7143H0.857143V14.5714H0.428571V18.2857L1.00002 18.8571H2.85718L6.42857 14.5714H9V23.3571H8.14286V24H14.2857C14.9107 24 15.4286 23.8594 15.4286 23.6786C15.4286 23.4978 14.9107 23.3571 14.2857 23.3571H12.1692L18.4286 15.4286H19.7143L22.2857 14.5714L29.1429 13.7143C34.2857 12.5714 34.2857 12.2902 34.2857 12C34.2857 11.7098 34.2857 11.4286 29.1429 10.2857Z" fill="#004AAD"/>
</g>
</svg>
