<svg width="28" height="28" viewBox="0 0 28 28" fill="none" xmlns="http://www.w3.org/2000/svg">
<path id="Icon" d="M0 3.11111C0 1.39289 1.39289 0 3.11111 0H8.21215C8.88171 0 9.47615 0.428447 9.68788 1.06365L12.0178 8.05344C12.2626 8.78784 11.9301 9.59048 11.2378 9.93668L7.72645 11.6923C9.44105 15.4952 12.5048 18.5589 16.3077 20.2735L18.0633 16.7623C18.4095 16.0699 19.2122 15.7374 19.9466 15.9822L26.9364 18.3121C27.5716 18.5239 28 19.1183 28 19.7878V24.8889C28 26.6071 26.6071 28 24.8889 28H23.3333C10.4467 28 0 17.5533 0 4.66667V3.11111Z" fill="#004AAD"/>
</svg>
