<svg width="18" height="19" viewBox="0 0 18 19" fill="none" xmlns="http://www.w3.org/2000/svg">
<path id="Icon" d="M0 2.5C0 1.39543 0.895431 0.5 2 0.5H5.27924C5.70967 0.5 6.09181 0.77543 6.22792 1.18377L7.72574 5.67721C7.88311 6.14932 7.66938 6.66531 7.22427 6.88787L4.96701 8.0165C6.06925 10.4612 8.03878 12.4308 10.4835 13.533L11.6121 11.2757C11.8347 10.8306 12.3507 10.6169 12.8228 10.7743L17.3162 12.2721C17.7246 12.4082 18 12.7903 18 13.2208V16.5C18 17.6046 17.1046 18.5 16 18.5H15C6.71573 18.5 0 11.7843 0 3.5V2.5Z" fill="#004AAD"/>
</svg>
