<svg width="26" height="21" viewBox="0 0 26 21" fill="none" xmlns="http://www.w3.org/2000/svg">
<g id="&#240;&#159;&#166;&#134; icon &#34;Ship&#34;">
<path id="Vector" d="M19.4356 14.8902L22.1705 12.1554C22.8306 11.4952 22.5588 10.3674 21.6691 10.0814L20.0366 9.55672V4.08398C20.0366 3.39363 19.4769 2.83398 18.7866 2.83398H16.2866V1.27148C16.2866 0.753711 15.8668 0.333984 15.3491 0.333984H9.72406C9.20629 0.333984 8.78656 0.753711 8.78656 1.27148V2.83398H6.28656C5.59621 2.83398 5.03656 3.39363 5.03656 4.08398V9.55672L3.40406 10.0814C2.51527 10.3671 2.24179 11.4945 2.90265 12.1554L5.6375 14.8902C4.95172 16.5952 3.3798 17.834 0.97406 17.834C0.456287 17.834 0.0365601 18.2537 0.0365601 18.7715V19.3965C0.0365601 19.9143 0.456287 20.334 0.97406 20.334C3.35777 20.334 5.17324 19.5289 6.57008 18.0138C7.13332 19.3743 8.47488 20.334 10.0366 20.334H15.0366C16.5982 20.334 17.9398 19.3743 18.503 18.0138C19.8996 19.5287 21.715 20.334 24.0991 20.334C24.6168 20.334 25.0366 19.9143 25.0366 19.3965V18.7715C25.0366 18.2537 24.6168 17.834 24.0991 17.834C21.7234 17.834 20.1326 16.623 19.4356 14.8902ZM7.53656 5.33398H17.5366V8.75316L12.9191 7.26898C12.6703 7.18902 12.4028 7.18902 12.1541 7.26898L7.53656 8.75316V5.33398Z" fill="#004AAD"/>
</g>
</svg>
