<svg width="20" height="19" viewBox="0 0 20 19" fill="none" xmlns="http://www.w3.org/2000/svg">
<path d="M19 9.5C19 14.4706 14.9706 18.5 10 18.5C5.02944 18.5 1 14.4706 1 9.5C1 4.52944 5.02944 0.5 10 0.5C14.9706 0.5 19 4.52944 19 9.5Z" fill="#004AAD"/>
<path d="M11 6.5L14 9.5M14 9.5L11 12.5M14 9.5L6 9.5M19 9.5C19 14.4706 14.9706 18.5 10 18.5C5.02944 18.5 1 14.4706 1 9.5C1 4.52944 5.02944 0.5 10 0.5C14.9706 0.5 19 4.52944 19 9.5Z" stroke="white" stroke-linecap="round" stroke-linejoin="round"/>
</svg>
